<svg id="Capa_1" enable-background="new 0 0 512 512" height="512" viewBox="0 0 512 512" width="512" xmlns="http://www.w3.org/2000/svg" xmlns:xlink="http://www.w3.org/1999/xlink"><linearGradient id="SVGID_1_" gradientUnits="userSpaceOnUse" x1="74.98" x2="437.018" y1="437.019" y2="74.98"><stop offset="0" stop-color="#0072ff"/><stop offset=".2462" stop-color="#279cf6"/><stop offset=".5952" stop-color="#5ad1ea"/><stop offset=".8572" stop-color="#79f2e3"/><stop offset="1" stop-color="#85ffe0"/></linearGradient><radialGradient id="SVGID_2_" cx="-9159.445" cy="-5179.924" gradientTransform="matrix(1 0 0 1.062 9415.445 5757.44)" gradientUnits="userSpaceOnUse" r="263.068"><stop offset="0" stop-color="#0056e0"/><stop offset=".0294" stop-color="#005cde" stop-opacity=".971"/><stop offset=".3628" stop-color="#0096c4" stop-opacity=".637"/><stop offset=".6473" stop-color="#00c1b1" stop-opacity=".353"/><stop offset=".8688" stop-color="#00dca5" stop-opacity=".131"/><stop offset="1" stop-color="#00e5a1" stop-opacity="0"/></radialGradient><linearGradient id="lg1"><stop offset="0" stop-color="#c2fff0"/><stop offset=".2696" stop-color="#c6fff1"/><stop offset=".5169" stop-color="#d1fff4"/><stop offset=".7555" stop-color="#e3fff8"/><stop offset=".9873" stop-color="#fdffff"/><stop offset="1" stop-color="#fff"/></linearGradient><linearGradient id="SVGID_3_" gradientUnits="userSpaceOnUse" x1="324.687" x2="397.706" xlink:href="#lg1" y1="132.586" y2="59.566"/><linearGradient id="lg2"><stop offset="0" stop-color="#0056e0"/><stop offset=".0436" stop-color="#2778e3" stop-opacity=".956"/><stop offset=".0935" stop-color="#4b97e6" stop-opacity=".907"/><stop offset=".1496" stop-color="#6bb4e9" stop-opacity=".85"/><stop offset=".2116" stop-color="#87cbeb" stop-opacity=".788"/><stop offset=".2816" stop-color="#9ddeed" stop-opacity=".718"/><stop offset=".3634" stop-color="#aeedee" stop-opacity=".637"/><stop offset=".4645" stop-color="#b9f7ef" stop-opacity=".536"/><stop offset=".6063" stop-color="#c0fdf0" stop-opacity=".394"/><stop offset="1" stop-color="#c2fff0" stop-opacity="0"/></linearGradient><linearGradient id="SVGID_4_" gradientUnits="userSpaceOnUse" x1="361.822" x2="361.822" xlink:href="#lg2" y1="119.676" y2="18.599"/><linearGradient id="SVGID_5_" gradientUnits="userSpaceOnUse" x1="293.877" x2="368.095" xlink:href="#lg1" y1="131.688" y2="57.469"/><linearGradient id="SVGID_6_" gradientUnits="userSpaceOnUse" x1="331.599" x2="331.599" xlink:href="#lg2" y1="118.305" y2="16.485"/><linearGradient id="SVGID_7_" gradientUnits="userSpaceOnUse" x1="263.164" x2="338.389" xlink:href="#lg1" y1="131.194" y2="55.97"/><linearGradient id="SVGID_8_" gradientUnits="userSpaceOnUse" x1="301.376" x2="301.376" xlink:href="#lg2" y1="117.359" y2="15.101"/><linearGradient id="SVGID_9_" gradientUnits="userSpaceOnUse" x1="232.546" x2="308.588" xlink:href="#lg1" y1="131.106" y2="55.065"/><linearGradient id="SVGID_10_" gradientUnits="userSpaceOnUse" x1="271.153" x2="271.153" xlink:href="#lg2" y1="116.837" y2="14.449"/><linearGradient id="SVGID_11_" gradientUnits="userSpaceOnUse" x1="202.026" x2="278.693" xlink:href="#lg1" y1="131.423" y2="54.757"/><linearGradient id="SVGID_12_" gradientUnits="userSpaceOnUse" x1="240.847" x2="240.847" xlink:href="#lg2" y1="116.837" y2="14.449"/><linearGradient id="SVGID_13_" gradientUnits="userSpaceOnUse" x1="171.602" x2="248.704" xlink:href="#lg1" y1="132.146" y2="55.044"/><linearGradient id="SVGID_14_" gradientUnits="userSpaceOnUse" x1="210.623" x2="210.623" xlink:href="#lg2" y1="117.359" y2="15.101"/><linearGradient id="SVGID_15_" gradientUnits="userSpaceOnUse" x1="141.274" x2="218.624" xlink:href="#lg1" y1="133.276" y2="55.925"/><linearGradient id="SVGID_16_" gradientUnits="userSpaceOnUse" x1="180.401" x2="180.401" xlink:href="#lg2" y1="118.305" y2="16.485"/><linearGradient id="SVGID_17_" gradientUnits="userSpaceOnUse" x1="111.042" x2="188.449" xlink:href="#lg1" y1="134.81" y2="57.403"/><linearGradient id="SVGID_18_" gradientUnits="userSpaceOnUse" x1="150.178" x2="150.178" xlink:href="#lg2" y1="119.676" y2="18.599"/><linearGradient id="SVGID_19_" gradientUnits="userSpaceOnUse" x1="343.817" x2="379.602" xlink:href="#lg1" y1="434.33" y2="398.545"/><linearGradient id="SVGID_20_" gradientUnits="userSpaceOnUse" x1="313.628" x2="349.387" xlink:href="#lg1" y1="435.823" y2="400.064"/><linearGradient id="SVGID_21_" gradientUnits="userSpaceOnUse" x1="283.482" x2="319.127" xlink:href="#lg1" y1="436.77" y2="401.125"/><linearGradient id="SVGID_22_" gradientUnits="userSpaceOnUse" x1="253.38" x2="288.823" xlink:href="#lg1" y1="437.171" y2="401.728"/><linearGradient id="SVGID_23_" gradientUnits="userSpaceOnUse" x1="223.321" x2="258.475" xlink:href="#lg1" y1="437.026" y2="401.872"/><linearGradient id="SVGID_24_" gradientUnits="userSpaceOnUse" x1="193.308" x2="228.084" xlink:href="#lg1" y1="436.335" y2="401.559"/><linearGradient id="SVGID_25_" gradientUnits="userSpaceOnUse" x1="163.337" x2="197.648" xlink:href="#lg1" y1="435.099" y2="400.788"/><linearGradient id="SVGID_26_" gradientUnits="userSpaceOnUse" x1="133.411" x2="167.169" xlink:href="#lg1" y1="433.316" y2="399.559"/><linearGradient id="lg3"><stop offset=".0503" stop-color="#0056e0"/><stop offset=".0917" stop-color="#2778e3" stop-opacity=".956"/><stop offset=".1391" stop-color="#4b97e6" stop-opacity=".907"/><stop offset=".1924" stop-color="#6bb4e9" stop-opacity=".85"/><stop offset=".2512" stop-color="#87cbeb" stop-opacity=".788"/><stop offset=".3177" stop-color="#9ddeed" stop-opacity=".718"/><stop offset=".3954" stop-color="#aeedee" stop-opacity=".637"/><stop offset=".4914" stop-color="#b9f7ef" stop-opacity=".536"/><stop offset=".6261" stop-color="#c0fdf0" stop-opacity=".394"/><stop offset="1" stop-color="#c2fff0" stop-opacity="0"/></linearGradient><linearGradient id="SVGID_27_" gradientTransform="matrix(1 0 0 -1 0 188.5)" gradientUnits="userSpaceOnUse" x1="361.822" x2="361.822" xlink:href="#lg3" y1="-203.824" y2="-304.901"/><linearGradient id="SVGID_28_" gradientTransform="matrix(1 0 0 -1 0 188.5)" gradientUnits="userSpaceOnUse" x1="331.599" x2="331.599" xlink:href="#lg3" y1="-205.195" y2="-307.016"/><linearGradient id="SVGID_29_" gradientTransform="matrix(1 0 0 -1 0 188.5)" gradientUnits="userSpaceOnUse" x1="301.376" x2="301.376" xlink:href="#lg3" y1="-206.141" y2="-308.399"/><linearGradient id="SVGID_30_" gradientTransform="matrix(1 0 0 -1 0 188.5)" gradientUnits="userSpaceOnUse" x1="271.153" x2="271.153" xlink:href="#lg3" y1="-206.663" y2="-309.051"/><linearGradient id="SVGID_31_" gradientTransform="matrix(1 0 0 -1 0 188.5)" gradientUnits="userSpaceOnUse" x1="240.847" x2="240.847" xlink:href="#lg3" y1="-206.663" y2="-309.051"/><linearGradient id="SVGID_32_" gradientTransform="matrix(1 0 0 -1 0 188.5)" gradientUnits="userSpaceOnUse" x1="210.623" x2="210.623" xlink:href="#lg3" y1="-206.141" y2="-308.399"/><linearGradient id="SVGID_33_" gradientTransform="matrix(1 0 0 -1 0 188.5)" gradientUnits="userSpaceOnUse" x1="180.401" x2="180.401" xlink:href="#lg3" y1="-205.195" y2="-307.016"/><linearGradient id="SVGID_34_" gradientTransform="matrix(1 0 0 -1 0 188.5)" gradientUnits="userSpaceOnUse" x1="150.178" x2="150.178" xlink:href="#lg3" y1="-203.824" y2="-304.901"/><linearGradient id="lg4"><stop offset="0" stop-color="#009ed8"/><stop offset="1" stop-color="#d4f4f4"/></linearGradient><linearGradient id="SVGID_35_" gradientUnits="userSpaceOnUse" x1="141.558" x2="549.838" xlink:href="#lg4" y1="510.319" y2="102.039"/><linearGradient id="SVGID_36_" gradientUnits="userSpaceOnUse" x1="76.288" x2="465.318" xlink:href="#lg4" y1="295.835" y2="-93.195"/><linearGradient id="SVGID_37_" gradientUnits="userSpaceOnUse" x1="-123.524" x2="514.389" xlink:href="#lg4" y1="635.524" y2="-2.389"/><linearGradient id="lg5"><stop offset="0" stop-color="#85ffe0"/><stop offset=".1954" stop-color="#89ffe1"/><stop offset=".3746" stop-color="#94ffe4"/><stop offset=".5476" stop-color="#a6ffe8"/><stop offset=".7167" stop-color="#c1ffef"/><stop offset=".8814" stop-color="#e2fff8"/><stop offset="1" stop-color="#fff"/></linearGradient><linearGradient id="SVGID_38_" gradientUnits="userSpaceOnUse" x1="59.234" x2="425.663" xlink:href="#lg5" y1="452.766" y2="86.337"/><linearGradient id="SVGID_39_" gradientUnits="userSpaceOnUse" x1="-188.456" x2="410.637" xlink:href="#lg5" y1="700.456" y2="101.364"/><g><circle cx="256" cy="256" fill="url(#SVGID_1_)" r="256"/><circle cx="256" cy="256" fill="url(#SVGID_2_)" r="256"/><path d="m361 63.881c-4.139-.291-7.413 2.881-7.312 7.06.417 17.144.775 34.289 1.077 51.433 5.065.224 10.13.466 15.195.724-.347-17.051-.761-34.103-1.242-51.154-.121-4.151-3.579-7.773-7.718-8.063z" fill="url(#SVGID_3_)"/><path d="m361 63.881c-4.139-.291-7.413 2.881-7.312 7.06.417 17.144.775 34.289 1.077 51.433 5.065.224 10.13.466 15.195.724-.347-17.051-.761-34.103-1.242-51.154-.121-4.151-3.579-7.773-7.718-8.063z" fill="url(#SVGID_4_)"/><path d="m331 62.09c-4.141-.207-7.439 3.061-7.37 7.274.288 17.291.537 34.581.746 51.872 5.065.155 10.13.328 15.194.518-.254-17.224-.558-34.448-.911-51.672-.088-4.195-3.516-7.785-7.659-7.992z" fill="url(#SVGID_5_)"/><path d="m331 62.09c-4.141-.207-7.439 3.061-7.37 7.274.288 17.291.537 34.581.746 51.872 5.065.155 10.13.328 15.194.518-.254-17.224-.558-34.448-.911-51.672-.088-4.195-3.516-7.785-7.659-7.992z" fill="url(#SVGID_6_)"/><path d="m301 60.897c-4.14-.125-7.464 3.228-7.428 7.464.16 17.384.298 34.767.414 52.151 5.065.086 10.13.19 15.195.311-.162-17.344-.355-34.687-.58-52.031-.057-4.225-3.46-7.772-7.601-7.895z" fill="url(#SVGID_7_)"/><path d="m301 60.897c-4.14-.125-7.464 3.228-7.428 7.464.16 17.384.298 34.767.414 52.151 5.065.086 10.13.19 15.195.311-.162-17.344-.355-34.687-.58-52.031-.057-4.225-3.46-7.772-7.601-7.895z" fill="url(#SVGID_8_)"/><path d="m271 60.3c-4.141-.042-7.492 3.386-7.486 7.631.032 17.423.06 34.847.083 52.27 5.065.017 10.13.052 15.195.104-.069-17.41-.152-34.82-.249-52.23-.025-4.242-3.402-7.734-7.543-7.775z" fill="url(#SVGID_9_)"/><path d="m271 60.3c-4.141-.042-7.492 3.386-7.486 7.631.032 17.423.06 34.847.083 52.27 5.065.017 10.13.052 15.195.104-.069-17.41-.152-34.82-.249-52.23-.025-4.242-3.402-7.734-7.543-7.775z" fill="url(#SVGID_10_)"/><path d="m241 60.3c-4.141.042-7.518 3.534-7.543 7.774-.096 17.41-.179 34.82-.249 52.23 5.065-.052 10.13-.086 15.195-.104.023-17.423.05-34.847.083-52.27.004-4.245-3.346-7.672-7.486-7.63z" fill="url(#SVGID_11_)"/><path d="m241 60.3c-4.141.042-7.518 3.534-7.543 7.774-.096 17.41-.179 34.82-.249 52.23 5.065-.052 10.13-.086 15.195-.104.023-17.423.05-34.847.083-52.27.004-4.245-3.346-7.672-7.486-7.63z" fill="url(#SVGID_12_)"/><path d="m211 60.897c-4.14.124-7.546 3.67-7.601 7.894-.225 17.344-.418 34.687-.58 52.031 5.065-.121 10.13-.224 15.195-.311.116-17.383.254-34.767.414-52.151.037-4.236-3.289-7.588-7.428-7.463z" fill="url(#SVGID_13_)"/><path d="m211 60.897c-4.14.124-7.546 3.67-7.601 7.894-.225 17.344-.418 34.687-.58 52.031 5.065-.121 10.13-.224 15.195-.311.116-17.383.254-34.767.414-52.151.037-4.236-3.289-7.588-7.428-7.463z" fill="url(#SVGID_14_)"/><path d="m181 62.09c-4.14.207-7.572 3.796-7.659 7.991-.353 17.224-.656 34.448-.911 51.672 5.065-.19 10.13-.362 15.194-.518.208-17.291.458-34.581.746-51.872.07-4.213-3.229-7.48-7.37-7.273z" fill="url(#SVGID_15_)"/><path d="m181 62.09c-4.14.207-7.572 3.796-7.659 7.991-.353 17.224-.656 34.448-.911 51.672 5.065-.19 10.13-.362 15.194-.518.208-17.291.458-34.581.746-51.872.07-4.213-3.229-7.48-7.37-7.273z" fill="url(#SVGID_16_)"/><path d="m151 63.881c-4.14.29-7.599 3.91-7.717 8.064-.481 17.052-.895 34.103-1.242 51.154 5.065-.259 10.13-.5 15.195-.724.301-17.144.66-34.289 1.077-51.433.098-4.179-3.172-7.352-7.313-7.061z" fill="url(#SVGID_17_)"/><path d="m151 63.881c-4.14.29-7.599 3.91-7.717 8.064-.481 17.052-.895 34.103-1.242 51.154 5.065-.259 10.13-.5 15.195-.724.301-17.144.66-34.289 1.077-51.433.098-4.179-3.172-7.352-7.313-7.061z" fill="url(#SVGID_18_)"/><path d="m354.764 389.626c-.301 17.144-.66 34.289-1.077 51.433-.101 4.178 3.173 7.351 7.312 7.06 4.139-.29 7.598-3.912 7.717-8.064.481-17.051.895-34.103 1.242-51.154-5.064.259-10.129.501-15.194.725z" fill="url(#SVGID_19_)"/><path d="m323.63 442.636c-.069 4.214 3.229 7.481 7.37 7.274 4.14-.208 7.572-3.795 7.659-7.991.353-17.224.656-34.448.911-51.672-5.065.19-10.13.362-15.194.518-.209 17.29-.458 34.581-.746 51.871z" fill="url(#SVGID_20_)"/><path d="m293.572 443.64c-.039 4.237 3.288 7.589 7.428 7.464 4.141-.123 7.544-3.67 7.601-7.894.225-17.344.418-34.687.58-52.031-5.065.121-10.13.224-15.195.311-.116 17.383-.254 34.766-.414 52.15z" fill="url(#SVGID_21_)"/><path d="m263.514 444.07c-.007 4.244 3.345 7.673 7.486 7.631 4.14-.04 7.517-3.533 7.543-7.774.096-17.41.179-34.82.249-52.23-5.065.052-10.13.086-15.195.104-.023 17.422-.05 34.845-.083 52.269z" fill="url(#SVGID_22_)"/><path d="m233.457 443.926c.025 4.24 3.403 7.733 7.543 7.774 4.139.042 7.491-3.386 7.486-7.631-.032-17.423-.06-34.847-.083-52.27-5.065-.017-10.13-.052-15.195-.104.069 17.411.152 34.821.249 52.231z" fill="url(#SVGID_23_)"/><path d="m203.399 443.21c.058 4.224 3.461 7.77 7.601 7.894 4.142.125 7.465-3.228 7.428-7.464-.16-17.383-.298-34.767-.414-52.15-5.065-.086-10.13-.19-15.195-.311.162 17.343.355 34.687.58 52.031z" fill="url(#SVGID_24_)"/><path d="m173.341 441.919c.088 4.195 3.518 7.783 7.659 7.991 4.141.207 7.438-3.06 7.37-7.274-.288-17.291-.537-34.581-.746-51.872-5.065-.155-10.13-.328-15.194-.518.254 17.225.558 34.449.911 51.673z" fill="url(#SVGID_25_)"/><path d="m143.283 440.056c.118 4.152 3.577 7.773 7.717 8.064 4.14.29 7.412-2.881 7.312-7.06-.417-17.144-.775-34.289-1.077-51.433-5.065-.224-10.13-.466-15.195-.724.348 17.05.762 34.101 1.243 51.153z" fill="url(#SVGID_26_)"/><path d="m361 448.119c-4.139.29-7.413-2.881-7.312-7.06.417-17.144.775-34.289 1.077-51.433 5.065-.224 10.13-.466 15.195-.724-.347 17.052-.761 34.103-1.242 51.154-.121 4.152-3.579 7.773-7.718 8.063z" fill="url(#SVGID_27_)"/><path d="m331 449.91c-4.141.207-7.439-3.06-7.37-7.274.288-17.291.537-34.581.746-51.872 5.065-.155 10.13-.328 15.194-.518-.254 17.224-.558 34.448-.911 51.672-.088 4.197-3.516 7.785-7.659 7.992z" fill="url(#SVGID_28_)"/><path d="m301 451.104c-4.14.125-7.464-3.228-7.428-7.464.16-17.383.298-34.767.414-52.15 5.065-.086 10.13-.19 15.195-.311-.162 17.344-.355 34.687-.58 52.031-.057 4.223-3.46 7.77-7.601 7.894z" fill="url(#SVGID_29_)"/><path d="m271 451.701c-4.141.042-7.492-3.386-7.486-7.631.032-17.423.06-34.847.083-52.27 5.065-.017 10.13-.052 15.195-.104-.069 17.41-.152 34.82-.249 52.23-.025 4.241-3.402 7.734-7.543 7.775z" fill="url(#SVGID_30_)"/><path d="m241 451.701c-4.141-.04-7.518-3.533-7.543-7.774-.096-17.41-.179-34.82-.249-52.23 5.065.052 10.13.086 15.195.104.023 17.423.05 34.847.083 52.27.004 4.243-3.346 7.672-7.486 7.63z" fill="url(#SVGID_31_)"/><path d="m211 451.104c-4.14-.123-7.546-3.67-7.601-7.894-.225-17.344-.418-34.687-.58-52.031 5.065.121 10.13.224 15.195.311.116 17.383.254 34.767.414 52.15.037 4.236-3.289 7.588-7.428 7.464z" fill="url(#SVGID_32_)"/><path d="m181 449.91c-4.14-.208-7.572-3.795-7.659-7.991-.353-17.224-.656-34.448-.911-51.672 5.065.19 10.13.362 15.194.518.208 17.291.458 34.581.746 51.872.07 4.213-3.229 7.48-7.37 7.273z" fill="url(#SVGID_33_)"/><path d="m151 448.119c-4.14-.29-7.599-3.912-7.717-8.064-.481-17.051-.895-34.103-1.242-51.154 5.065.259 10.13.5 15.195.724.301 17.144.66 34.289 1.077 51.433.098 4.179-3.172 7.352-7.313 7.061z" fill="url(#SVGID_34_)"/><path d="m134.411 387c.108 5 .221 10 .342 15 .101 4.14 3.573 7.715 7.751 7.965 75.664 4.497 151.328 4.497 226.992 0 4.179-.251 7.65-3.825 7.751-7.965.12-5 .234-10 .342-15-81.06 4.367-162.119 4.367-243.178 0z" fill="url(#SVGID_35_)"/><path d="m369.496 102.035c-75.664-4.497-151.328-4.497-226.992 0-4.178.25-7.651 3.825-7.751 7.965-.12 5-.234 10-.342 15 81.059-4.367 162.118-4.367 243.178 0-.108-5-.221-10-.342-15-.1-4.14-3.573-7.714-7.751-7.965z" fill="url(#SVGID_36_)"/><path d="m377.589 125c-.09-4.139-3.566-7.694-7.755-7.919-75.889-4.057-151.778-4.057-227.667 0-4.19.227-7.665 3.779-7.755 7.919-.377 17.5-.678 35-.904 52.5 26.373 25.311 53.135 51.757 79.956 78.5-26.821 26.743-53.583 53.189-79.956 78.5.226 17.5.527 35 .904 52.5.091 4.14 3.565 7.693 7.755 7.919 75.889 4.057 151.778 4.057 227.667 0 4.189-.226 7.666-3.779 7.755-7.919.377-17.5.678-35 .904-52.5-26.373-25.311-53.135-51.757-79.956-78.5 26.821-26.743 53.583-53.189 79.956-78.5-.226-17.5-.527-35-.904-52.5z" fill="url(#SVGID_37_)"/><path d="m133.507 177.5c-.676 52.333-.676 104.667 0 157 81.662 2.617 163.324 2.617 244.986 0-80.986-49.716-164-107.283-244.986-157z" fill="url(#SVGID_38_)"/><path d="m133.507 177.5c42.16 92.661 139.947 161.03 244.986 157 .599 0 .599-157 0-157-81.662-2.617-163.324-2.617-244.986 0z" fill="url(#SVGID_39_)"/></g></svg>